# xmcd
#
# Track frame offsets: 
#        150
#        20070
#        25482
#        37207
#        46530
#        71260
#        107075
#        118380
#        160320
#        163572
#        177652
#        183222
#
# Disc length: 3145 seconds
#
# Revision: 5
# Processed by: cddbd v1.5.1PL2 Copyright (c) Steve Scherf et al.
# Submitted via: ExactAudioCopy v0.95b3
#
DISCID=a30c470c
DTITLE=De Vliegende Panters - Hype [CD2)
DYEAR=2000
DGENRE=Kleinkunst
TTITLE0=Marketing the musical
TTITLE1=Triple X 4
TTITLE2=Stukjes Poep
TTITLE3=Slager Korrel (the sequel)
TTITLE4=Kinshasa
TTITLE5=Videootje
TTITLE6=Lekker Reppe
TTITLE7=Vreemd
TTITLE8=Triple X 5
TTITLE9=Het Dorp
TTITLE10=Triple X 6
TTITLE11=Het Dorp (Curtain call)
EXTD=
EXTT0=
EXTT1=
EXTT2=
EXTT3=
EXTT4=
EXTT5=
EXTT6=
EXTT7=
EXTT8=
EXTT9=
EXTT10=
EXTT11=
PLAYORDER=
